<?xml version="1.0" encoding="UTF-8"?>
<svg width="26px" height="16px" viewBox="0 0 26 16" version="1.1" xmlns="http://www.w3.org/2000/svg" xmlns:xlink="http://www.w3.org/1999/xlink">
    <!-- Generator: Sketch 48.2 (47327) - http://www.bohemiancoding.com/sketch -->
    <title>Shape</title>
    <desc>Created with Sketch.</desc>
    <defs></defs>
    <g id="Page-1" stroke="none" stroke-width="1" fill="none" fill-rule="evenodd">
        <path d="M17.1428571,6.85714286 C19.04,6.85714286 20.56,5.32571429 20.56,3.42857143 C20.56,1.53142857 19.04,0 17.1428571,0 C15.2457143,0 13.7142857,1.53142857 13.7142857,3.42857143 C13.7142857,5.32571429 15.2457143,6.85714286 17.1428571,6.85714286 Z M8,6.85714286 C9.89714286,6.85714286 11.4171429,5.32571429 11.4171429,3.42857143 C11.4171429,1.53142857 9.89714286,0 8,0 C6.10285714,0 4.57142857,1.53142857 4.57142857,3.42857143 C4.57142857,5.32571429 6.10285714,6.85714286 8,6.85714286 Z M8,9.14285714 C5.33714286,9.14285714 0,10.48 0,13.1428571 L0,16 L16,16 L16,13.1428571 C16,10.48 10.6628571,9.14285714 8,9.14285714 Z M17.1428571,9.14285714 C16.8114286,9.14285714 16.4342857,9.16571429 16.0342857,9.2 C17.36,10.16 18.2857143,11.4514286 18.2857143,13.1428571 L18.2857143,16 L25.1428571,16 L25.1428571,13.1428571 C25.1428571,10.48 19.8057143,9.14285714 17.1428571,9.14285714 Z" id="Shape" fill="#CCCCCC" fill-rule="nonzero"></path>
    </g>
</svg>